<svg xmlns="http://www.w3.org/2000/svg" xmlns:xlink="http://www.w3.org/1999/xlink" viewBox="0 0 333.02 140.2"><defs><style>.cls-1{fill:#001b38;stroke-miterlimit:10;stroke:url(#Degradado_sin_nombre_16);}</style><linearGradient id="Degradado_sin_nombre_16" x1="327.16" y1="118.4" x2="11.47" y2="39.48" gradientUnits="userSpaceOnUse"><stop offset="0"/><stop offset="0.02" stop-color="#000a15"/><stop offset="0.08" stop-color="#001b39"/><stop offset="0.13" stop-color="#002a59"/><stop offset="0.19" stop-color="#003675"/><stop offset="0.27" stop-color="#00418b"/><stop offset="0.35" stop-color="#00489c"/><stop offset="0.45" stop-color="#004ea7"/><stop offset="0.6" stop-color="#0051ae"/><stop offset="0.99" stop-color="#0052b0"/></linearGradient></defs><g id="Capa_2" data-name="Capa 2"><g id="Capa_1-2" data-name="Capa 1"><path class="cls-1" d="M20.32,138.53c6.06-4.65,10.63-10.33,14.75-16.48,1.57-2.34.76-3.6-1.2-4.84s-3.41-1.79-5,.67c-2.48,3.9-5.36,7.55-9.57,9.79-1.86,1-4,2.15-6,.72-1.75-1.27-1.12-3.4-.83-5.23,1.59-10.23,4.73-20.09,7.53-30,1.09-3.84-.27-5.54-3.51-6.7-5-1.81-10.26-1.91-15.9-1.62,1-3.78,1.87-7.31,2.91-11.4,3.79,3.54,8,3.82,12.37,2.92a14.23,14.23,0,0,0,8.92-5.71c3.32-4.58,3.81-10.4,1.18-14.35C23.51,52.5,18.2,50.76,12.6,52c-1.09.23-2.14.67-3.77,1.2,1.83-6.9,3.53-13.57,5.42-20.19.44-1.54,2.2-1.94,3.65-2.31a57.33,57.33,0,0,1,36.31,2.25c5.94,2.41,6.11,3.33,4.3,9.54-.3,1-.53,2.11-.9,3.62,8-5.26,15.7-10,24.21-13.26,6.58-2.55,13.29-4.08,20.44-3.52,11.59.91,16.56,5.53,17.94,17.42,2.74-1.68,5.32-3.32,8-4.87C139,35.48,150,30,162.9,29.2c13.88-.86,21.76,6.06,22.39,19.9.36,7.87-2,15.24-4.25,22.63-2.69,8.93-5.72,17.76-7.53,26.93a18.2,18.2,0,0,0,.1,9.24c1,3.07,3,4.4,6.34,3.57,7.33-1.85,12.37-6.91,16.89-12.41,9.17-11.15,15.57-24,21.17-37.15,2.28-5.37,4-11,6.17-16.39a4.76,4.76,0,0,0-.56-4.8c-3.83-6.19-5.84-12.86-4.83-20.27C220.49,8,234-1.71,246.11.94a15,15,0,0,1,12.2,15.76c-.24,6.52,2.41,10,7.32,13.54,7.08,5.06,14.05,10.37,19.79,17.06,8.8,10.24,9.54,18.42,2.41,29.87C283.28,84.48,279.16,92,277,100.39a26.53,26.53,0,0,0-1.09,8.49c.34,4.71,2.34,6.74,7.07,7,7,.33,13.2-2.27,18.86-6.12a57.42,57.42,0,0,0,17.69-19c2-3.4,4.06-3.52,7-1.84a22.88,22.88,0,0,1,2.22,1.38c4.66,3.43,4.78,4.06,1.62,8.92-7.66,11.76-15.82,23.1-28.29,30.34-16.34,9.48-34,12.34-52.31,8.32-16.36-3.59-24.32-16.2-22.36-32.81,1.53-13,6.59-24.66,12.71-36a44.8,44.8,0,0,0,2.58-5c1.92-4.9.48-8.68-4-11.49-1.72-1.08-2.41-1-3.08,1.08a206,206,0,0,1-19.07,41.2c-10.41,17.54-23.23,32.75-42.94,40.52a55.59,55.59,0,0,1-34.53,2.33c-10-2.51-15.28-9.86-15.32-21.15,0-10.31,2.84-20.16,5.44-30,1.77-6.73,3.58-13.46,5.29-20.21.52-2.06,1-4.37-.84-6s-4-.54-6,.06c-.35.11-.67.34-1,.45-6.13,1.94-9.43,5.52-10.87,12.39-4.12,19.71-9.91,39.05-14,58.77-.74,3.52-3.5,4.31-6.18,5.18-7.34,2.38-15,2.57-22.59,2.53A50.94,50.94,0,0,1,59.6,138c-5.72-1.58-6.87-3.37-5.44-9Q62.07,98.1,70,67.2a17.32,17.32,0,0,0,.57-2.92c.31-3.6-1.27-5.09-4.87-4.66a16.14,16.14,0,0,0-14.1,12.14c-5.58,19.88-10.63,39.89-15,60.07a5.22,5.22,0,0,1-3,4A30.79,30.79,0,0,1,20.32,138.53Z"/></g></g></svg>